<svg width="28" height="20" viewBox="0 0 28 20" fill="none" xmlns="http://www.w3.org/2000/svg">
<path d="M3 0V13.5625L0.71875 15.877C0.26575 16.329 0 16.9527 0 17.5938C0 18.9137 1.08625 20 2.40625 20H25.5938C26.9137 20 28 18.9137 28 17.5938C28 16.9527 27.7342 16.328 27.2812 15.875L25 13.5625V0H3ZM5 2H23V13H5V2ZM13 4V7H10V9H13V12H15V9H18V7H15V4H13ZM4.4375 15H23.5625L25.875 17.2812C25.953 17.3592 26 17.4837 26 17.5938C26 17.8358 25.8358 18 25.5938 18H2.40625C2.16425 18 2 17.8358 2 17.5938C2 17.4848 2.047 17.3603 2.125 17.2812L4.4375 15Z" fill="black"/>
</svg>
